<?xml version="1.0" encoding="iso-8859-1"?>
<!-- Uploaded to: SVG Repo, www.svgrepo.com, Generator: SVG Repo Mixer Tools -->
<svg height="800px" width="800px" version="1.1" id="Layer_1" xmlns="http://www.w3.org/2000/svg" xmlns:xlink="http://www.w3.org/1999/xlink" 
	 viewBox="0 0 512.001 512.001" xml:space="preserve">
<circle style="fill:#F57328;" cx="256" cy="256" r="256"/>
<path style="fill:#E25921;" d="M369.778,426.667c-141.384,0-256-114.616-256-256c0-57.865,19.218-111.231,51.593-154.105
	C68.73,53.163,0,146.534,0,256c0,141.384,114.616,256,256,256c83.52,0,157.678-40.012,204.407-101.895
	C432.228,420.777,401.697,426.667,369.778,426.667z"/>
<path style="fill:#5B5D6E;" d="M341.574,265.481h170.187c0.115-3.151,0.241-6.302,0.241-9.481c0-3.18-0.124-6.33-0.241-9.481
	H341.574c2.729-71.703,36.254-135.612,87.652-178.969c-4.713-4.335-9.614-8.462-14.643-12.439
	c-54.144,46.792-89.272,115.029-91.97,191.407h-57.131V0.241C262.33,0.124,259.18,0,256,0c-3.18,0-6.33,0.124-9.481,0.241v246.278
	h-57.129c-2.699-76.377-37.826-144.614-91.97-191.407c-5.03,3.975-9.929,8.103-14.643,12.439
	c51.398,43.356,84.922,107.266,87.652,178.969H0.241C0.124,249.67,0,252.82,0,256c0,3.18,0.124,6.33,0.241,9.481h170.187
	c-2.729,71.703-36.254,135.612-87.652,178.969c4.713,4.335,9.614,8.462,14.643,12.439c54.144-46.792,89.272-115.029,91.97-191.407
	h57.129v246.278C249.67,511.874,252.82,512,256,512c3.18,0,6.33-0.124,9.481-0.241V265.481h57.129
	c2.699,76.377,37.826,144.614,91.97,191.407c5.03-3.975,9.929-8.103,14.643-12.439C377.828,401.094,344.302,337.184,341.574,265.481
	z"/>
<g>
	<path style="fill:#464655;" d="M0,256c0,3.18,0.124,6.33,0.241,9.481h131.75c-2.481-6.215-4.786-12.519-6.782-18.963H0.371
		C0.255,249.682,0,252.808,0,256z"/>
	<path style="fill:#464655;" d="M121.417,108.488c1.879-7.524,4.123-14.897,6.652-22.14c-9.346-11.223-19.584-21.669-30.63-31.217
		c-5.029,3.974-9.899,8.133-14.612,12.465C97.188,79.714,110.138,93.433,121.417,108.488z"/>
	<path style="fill:#464655;" d="M176.423,338.341c-5.054-5.823-9.85-11.87-14.369-18.135
		c-13.281,49.18-41.404,92.295-79.281,124.244c4.713,4.335,9.614,8.462,14.643,12.439
		C133.591,425.627,161.235,384.788,176.423,338.341z"/>
	<path style="fill:#464655;" d="M407.533,423.838c-7.614,1.132-15.334,1.925-23.151,2.368c9.218,11.009,19.302,21.261,30.161,30.649
		c5.029-3.975,9.926-8.105,14.639-12.442C421.564,437.985,414.322,431.13,407.533,423.838z"/>
	<path style="fill:#464655;" d="M265.481,511.717V404.448c-6.46-2.887-12.799-5.995-18.963-9.388v116.7
		c3.151,0.115,6.302,0.241,9.481,0.241C259.183,512,262.325,511.832,265.481,511.717z"/>
</g>
</svg>